<?xml version="1.0" standalone="no"?>
<!DOCTYPE svg PUBLIC "-//W3C//DTD SVG 20010904//EN"
 "http://www.w3.org/TR/2001/REC-SVG-20010904/DTD/svg10.dtd">
<svg version="1.0" xmlns="http://www.w3.org/2000/svg"
 width="512.000000pt" height="512.000000pt" viewBox="0 0 512.000000 512.000000"
 preserveAspectRatio="xMidYMid meet">
<metadata>
Created by potrace 1.16, written by Peter Selinger 2001-2019
</metadata>
<g transform="translate(0.000000,512.000000) scale(0.100000,-0.100000)"
fill="#000000" stroke="none">
<path d="M0 2560 l0 -2560 2560 0 2560 0 0 2560 0 2560 -2560 0 -2560 0 0
-2560z m825 1805 c237 -61 422 -254 466 -485 7 -36 14 -66 15 -68 1 -2 30 19
64 46 33 27 97 69 142 93 44 24 88 52 97 62 9 10 25 23 36 28 16 8 15 6 -3 -8
-15 -12 -21 -25 -16 -36 8 -21 1 -22 103 13 271 93 572 76 828 -45 125 -59
231 -134 328 -230 95 -95 159 -189 222 -322 25 -54 47 -99 48 -101 1 -1 21 5
45 13 95 34 207 11 285 -57 95 -83 126 -211 80 -329 -5 -13 4 -19 42 -28 126
-32 260 -130 338 -246 21 -33 41 -52 49 -49 9 3 20 -16 34 -61 39 -118 112
-105 -587 -105 -335 0 -616 -3 -625 -6 -21 -8 -21 -40 0 -48 9 -3 292 -6 630
-6 l614 0 -1 -57 c-1 -32 -4 -71 -8 -88 l-6 -30 -625 -5 c-617 -5 -625 -5
-625 -25 0 -20 8 -20 614 -23 l613 -2 -7 -28 c-7 -31 -48 -103 -71 -126 -13
-14 -50 -16 -245 -16 l-230 0 3 -23 c3 -22 4 -22 206 -25 111 -1 202 -6 202
-10 0 -15 -96 -81 -162 -112 -35 -17 -96 -37 -134 -45 -59 -12 -70 -12 -84 0
-14 13 -215 15 -1416 17 l-1399 3 -70 23 c-127 43 -204 90 -295 182 -95 94
-142 173 -181 300 -30 97 -33 271 -6 370 54 198 192 367 372 455 112 55 172
68 329 69 l138 1 28 86 c16 48 45 119 65 159 36 71 39 100 11 100 -17 0 -86
-137 -116 -230 l-21 -66 -117 -1 c-126 -1 -233 -22 -313 -63 l-42 -22 -74 38
c-224 115 -357 352 -340 602 12 161 65 280 177 393 87 88 175 141 281 169 92
24 232 26 314 5z m1666 -313 c-7 -2 -18 1 -23 6 -8 8 -4 9 13 5 13 -4 18 -8
10 -11z m419 -257 c13 -14 21 -25 18 -25 -2 0 -15 11 -28 25 -13 14 -21 25
-18 25 2 0 15 -11 28 -25z m115 -125 c3 -5 1 -10 -4 -10 -6 0 -11 5 -11 10 0
6 2 10 4 10 3 0 8 -4 11 -10z m26 -37 c13 -16 12 -17 -3 -4 -17 13 -22 21 -14
21 2 0 10 -8 17 -17z m460 -310 c13 -16 12 -17 -3 -4 -17 13 -22 21 -14 21 2
0 10 -8 17 -17z m384 -503 c10 -11 16 -20 13 -20 -3 0 -13 9 -23 20 -10 11
-16 20 -13 20 3 0 13 -9 23 -20z m-3838 -317 c-3 -10 -5 -4 -5 12 0 17 2 24 5
18 2 -7 2 -21 0 -30z m0 -55 c-3 -7 -5 -2 -5 12 0 14 2 19 5 13 2 -7 2 -19 0
-25z m2986 -715 c-243 -2 -643 -2 -890 0 -246 1 -47 2 442 2 490 0 691 -1 448
-2z m-2132 -106 c-10 -9 -11 -8 -5 6 3 10 9 15 12 12 3 -3 0 -11 -7 -18z
m1169 -11 c0 -3 -4 -8 -10 -11 -5 -3 -10 -1 -10 4 0 6 5 11 10 11 6 0 10 -2
10 -4z m1021 -49 c-10 -9 -11 -8 -5 6 3 10 9 15 12 12 3 -3 0 -11 -7 -18z
m-2124 -39 c-3 -8 -6 -5 -6 6 -1 11 2 17 5 13 3 -3 4 -12 1 -19z m1614 -31
c-10 -9 -11 -8 -5 6 3 10 9 15 12 12 3 -3 0 -11 -7 -18z m-423 -102 c-3 -3 -9
2 -12 12 -6 14 -5 15 5 6 7 -7 10 -15 7 -18z m-1090 -90 c-3 -3 -9 2 -12 12
-6 14 -5 15 5 6 7 -7 10 -15 7 -18z m769 -297 c-3 -7 -5 -2 -5 12 0 14 2 19 5
13 2 -7 2 -19 0 -25z"/>
<path d="M2897 1984 c-4 -4 -7 -16 -7 -26 0 -17 14 -18 226 -18 l225 0 -3 23
c-3 22 -4 22 -219 25 -118 1 -218 -1 -222 -4z"/>
</g>
</svg>
